<svg xmlns="http://www.w3.org/2000/svg" width="90.693" height="65.387" viewBox="0 0 90.693 65.387">
    <defs>
        <style>
            .prefix__cls-1{fill:#ff901d}.prefix__cls-2{fill:#f7bc14}.prefix__cls-3{fill:#ffb125}.prefix__cls-4{fill:#fed130}
        </style>
    </defs>
    <g id="prefix__sports-and-competition" transform="translate(0 -71.431)">
        <g id="prefix__Group_2503" data-name="Group 2503" transform="translate(0 77.498)">
            <path id="prefix__Path_1638" d="M35.913 112.186a58.283 58.283 0 0 1 6.892-6.424.388.388 0 0 1 .615.4 31.332 31.332 0 0 1-7.574 13.938 51.421 51.421 0 0 1 .067-7.914z" class="prefix__cls-1" data-name="Path 1638" transform="translate(-29.398 -105.677)"/>
            <path id="prefix__Path_1639" d="M6.448 147.968a58.248 58.248 0 0 1-5.7-8.229.386.386 0 0 0-.721.17c-.3 5.973 1.98 12.962 7.54 15.781a51.652 51.652 0 0 1-1.119-7.722z" class="prefix__cls-1" data-name="Path 1639" transform="translate(0 -133.545)"/>
            <path id="prefix__Path_1640" d="M42.714 193.041a56.012 56.012 0 0 1 4.675-7.939.387.387 0 0 1 .7.2 29.384 29.384 0 0 1-3.14 15.143 52 52 0 0 1-2.235-7.404z" class="prefix__cls-1" data-name="Path 1640" transform="translate(-35.148 -170.898)"/>
            <path id="prefix__Path_1641" d="M15.917 244.174a60.424 60.424 0 0 1-7.842-6 .386.386 0 0 0-.634.381c1.484 5.705 5.727 11.56 11.769 12.594a52.282 52.282 0 0 1-3.293-6.975z" class="prefix__cls-1" data-name="Path 1641" transform="translate(-6.113 -214.62)"/>
            <path id="prefix__Path_1642" d="M73.937 269.356a55.121 55.121 0 0 1 2.177-8.892.387.387 0 0 1 .731-.009 29.155 29.155 0 0 1 1.375 15.321 52.24 52.24 0 0 1-4.283-6.42z" class="prefix__cls-1" data-name="Path 1642" transform="translate(-60.84 -232.829)"/>
            <path id="prefix__Path_1643" d="M52.683 332.012a61.631 61.631 0 0 1-9.229-3.435.386.386 0 0 0-.494.55c3.083 5.027 8.854 9.379 14.932 8.629a51.928 51.928 0 0 1-5.209-5.744z" class="prefix__cls-1" data-name="Path 1643" transform="translate(-35.302 -289.063)"/>
            <path id="prefix__Path_1644" d="M124.931 336.19a53.971 53.971 0 0 1-.537-9.175.388.388 0 0 1 .7-.221A30.229 30.229 0 0 1 131 341.137a51.61 51.61 0 0 1-6.069-4.947z" class="prefix__cls-1" data-name="Path 1644" transform="translate(-102.343 -287.497)"/>
            <path id="prefix__Path_1645" d="M440.28 112.186a58.288 58.288 0 0 0-6.892-6.424.388.388 0 0 0-.615.4 31.332 31.332 0 0 0 7.574 13.932 51.424 51.424 0 0 0-.067-7.908z" class="prefix__cls-1" data-name="Path 1645" transform="translate(-356.102 -105.677)"/>
            <path id="prefix__Path_1646" d="M470.4 147.968a58.243 58.243 0 0 0 5.7-8.229.386.386 0 0 1 .721.17c.3 5.973-1.98 12.962-7.54 15.781a51.652 51.652 0 0 0 1.119-7.722z" class="prefix__cls-1" data-name="Path 1646" transform="translate(-386.157 -133.545)"/>
            <path id="prefix__Path_1647" d="M444.156 193.041a56.008 56.008 0 0 0-4.675-7.939.387.387 0 0 0-.7.2 29.384 29.384 0 0 0 3.14 15.143 52.018 52.018 0 0 0 2.235-7.404z" class="prefix__cls-1" data-name="Path 1647" transform="translate(-361.029 -170.898)"/>
            <path id="prefix__Path_1648" d="M441.35 244.174a60.428 60.428 0 0 0 7.842-6 .386.386 0 0 1 .634.381c-1.484 5.705-5.727 11.56-11.769 12.594a52.277 52.277 0 0 0 3.293-6.975z" class="prefix__cls-1" data-name="Path 1648" transform="translate(-360.461 -214.62)"/>
            <path id="prefix__Path_1649" d="M415.912 269.356a55.123 55.123 0 0 0-2.177-8.892.387.387 0 0 0-.731-.009 29.155 29.155 0 0 0-1.375 15.321 52.232 52.232 0 0 0 4.283-6.42z" class="prefix__cls-1" data-name="Path 1649" transform="translate(-338.315 -232.829)"/>
            <path id="prefix__Path_1650" d="M389.68 332.012a61.634 61.634 0 0 0 9.229-3.435.386.386 0 0 1 .494.55c-3.083 5.027-8.854 9.379-14.932 8.629a51.927 51.927 0 0 0 5.209-5.744z" class="prefix__cls-1" data-name="Path 1650" transform="translate(-316.368 -289.063)"/>
            <path id="prefix__Path_1651" d="M356.287 336.19a53.974 53.974 0 0 0 .537-9.175.388.388 0 0 0-.7-.221 30.23 30.23 0 0 0-5.909 14.345 51.6 51.6 0 0 0 6.072-4.949z" class="prefix__cls-1" data-name="Path 1651" transform="translate(-288.182 -287.497)"/>
        </g>
        <g id="prefix__Group_2504" data-name="Group 2504" transform="translate(5.06 71.431)">
            <path id="prefix__Path_1652" d="M59.659 133.95a50.238 50.238 0 0 1-6.665-3.911 50.32 50.32 0 0 1-5.891-4.8 50.628 50.628 0 0 1-5.059-5.578 50.971 50.971 0 0 1-4.161-6.236 51.038 51.038 0 0 1-3.2-6.77 50.827 50.827 0 0 1-2.174-7.2 50.383 50.383 0 0 1-1.086-7.5 50.125 50.125 0 0 1 .064-7.681v-.086a53.473 53.473 0 0 1 2.033-10.993 1.369 1.369 0 0 0-2.626-.775 56.2 56.2 0 0 0-2.149 11.67v.079a53.045 53.045 0 0 0-.058 7.954 53.1 53.1 0 0 0 1.142 7.9v.007a53.514 53.514 0 0 0 2.29 7.586 53.77 53.77 0 0 0 3.369 7.138 53.762 53.762 0 0 0 4.382 6.571 53.383 53.383 0 0 0 5.328 5.877 53.045 53.045 0 0 0 6.214 5.068 52.947 52.947 0 0 0 7.029 4.128 1.369 1.369 0 1 0 1.211-2.455z" class="prefix__cls-2" data-name="Path 1652" transform="translate(-28.564 -71.431)"/>
            <path id="prefix__Path_1653" d="M335.264 84.173v-.079a56.189 56.189 0 0 0-2.147-11.677 1.369 1.369 0 1 0-2.625.775 53.478 53.478 0 0 1 2.033 10.992v.087a50.124 50.124 0 0 1 .064 7.682 50.41 50.41 0 0 1-1.086 7.5 50.749 50.749 0 0 1-2.174 7.195 51.029 51.029 0 0 1-3.2 6.773 50.994 50.994 0 0 1-4.161 6.236 50.691 50.691 0 0 1-5.059 5.578 50.31 50.31 0 0 1-5.891 4.8 50.176 50.176 0 0 1-6.665 3.911 1.369 1.369 0 1 0 1.211 2.455 52.941 52.941 0 0 0 7.029-4.127 53.069 53.069 0 0 0 6.214-5.068 53.412 53.412 0 0 0 5.329-5.879 53.769 53.769 0 0 0 4.384-6.573 53.731 53.731 0 0 0 3.367-7.134 53.517 53.517 0 0 0 2.289-7.582 53.14 53.14 0 0 0 1.144-7.907.047.047 0 0 0 0-.005 53.012 53.012 0 0 0-.056-7.953z" class="prefix__cls-2" data-name="Path 1653" transform="translate(-254.868 -71.435)"/>
        </g>
        <g id="prefix__Group_2505" data-name="Group 2505" transform="translate(20.776 87.729)">
            <path id="prefix__Path_1654" d="M134.081 186.919a16.839 16.839 0 0 1-16.793-16.856v-4.628a2 2 0 0 1 2-2h.005l12.118.027a1.369 1.369 0 0 1 0 2.737l-11.378-.025v3.888A14.089 14.089 0 0 0 136.323 184l.425-.072a1.369 1.369 0 1 1 .472 2.7l-.459.078a16.723 16.723 0 0 1-2.68.213z" class="prefix__cls-3" data-name="Path 1654" transform="translate(-117.288 -163.435)"/>
            <path id="prefix__Path_1655" d="M280.064 186.92a16.746 16.746 0 0 1-2.68-.216q-.228-.037-.459-.078a1.369 1.369 0 1 1 .472-2.7q.214.038.425.072a14.09 14.09 0 0 0 16.3-13.938v-3.888l-11.378.025a1.369 1.369 0 0 1 0-2.738l12.118-.027h.005a2 2 0 0 1 2 2v4.628a16.839 16.839 0 0 1-16.793 16.856z" class="prefix__cls-3" data-name="Path 1655" transform="translate(-247.715 -163.436)"/>
        </g>
        <path id="prefix__Path_1656" d="M205.2 300.777h18c-7.455-9.454-6.677-23.08-6.677-23.08h-4.643s.771 13.626-6.68 23.08z" class="prefix__cls-4" data-name="Path 1656" transform="translate(-168.848 -169.729)"/>
        <path id="prefix__Path_1657" d="M246.071 277.7h-4.643a37.53 37.53 0 0 1-.189 5.258 24.832 24.832 0 0 0 4.4 16.923q.326.455.676.9h6.434c-7.456-9.457-6.678-23.081-6.678-23.081z" class="prefix__cls-2" data-name="Path 1657" transform="translate(-198.402 -169.729)"/>
        <path id="prefix__Path_1658" d="M179.353 141.293v11.941a22.232 22.232 0 0 0 9.045 17.9 7.64 7.64 0 0 0 9.063 0 22.232 22.232 0 0 0 9.045-17.9v-11.941z" class="prefix__cls-4" data-name="Path 1658" transform="translate(-147.583 -57.487)"/>
        <path id="prefix__Path_1659" d="M248.1 141.293v11.941a22.232 22.232 0 0 1-9.045 17.9 7.637 7.637 0 0 1-1.3.772 7.641 7.641 0 0 0 7.764-.772 22.232 22.232 0 0 0 9.045-17.9v-11.941z" class="prefix__cls-2" data-name="Path 1659" transform="translate(-195.638 -57.487)"/>
        <path id="prefix__Path_1660" d="M199.272 129.158h-29.1a.794.794 0 0 1-.794-.794v-3.291a.794.794 0 0 1 .794-.794h29.1a.794.794 0 0 1 .794.794v3.291a.794.794 0 0 1-.794.794z" class="prefix__cls-3" data-name="Path 1660" transform="translate(-139.376 -43.486)"/>
        <path id="prefix__Path_1661" d="M311.8 124.28h-5.67v4.879h5.67a.794.794 0 0 0 .794-.794v-3.291a.794.794 0 0 0-.794-.794z" class="prefix__cls-1" data-name="Path 1661" transform="translate(-251.9 -43.487)"/>
        <path id="prefix__Path_1662" d="M197.3 405.867h-30.754a.64.64 0 0 1-.6-.862l2.284-6.189a.64.64 0 0 1 .6-.419h26.19a.64.64 0 0 1 .6.419L197.9 405a.64.64 0 0 1-.6.867z" class="prefix__cls-3" data-name="Path 1662" transform="translate(-136.517 -269.048)"/>
        <path id="prefix__Path_1663" d="M304.135 405l-2.284-6.189a.641.641 0 0 0-.6-.419H295l2.757 7.47h5.774a.641.641 0 0 0 .604-.862z" class="prefix__cls-1" data-name="Path 1663" transform="translate(-242.747 -269.048)"/>
    </g>
</svg>
